<svg width="590" height="650" viewBox="0 0 590 650" fill="none" xmlns="http://www.w3.org/2000/svg">
<path d="M407.873 225.006C410.197 240.048 408.73 259.563 403.65 281.699M403.65 281.699C379.9 385.129 277.157 545.783 112.75 574.736C112.75 574.736 67.8137 584.346 43.0887 559.096C1.06605 516.176 5.42202 402.616 359.027 291.723C373.533 287.173 388.583 283.806 403.65 281.699ZM403.65 281.699C545.417 261.866 688.3 353.753 387.527 625.006M142.708 125.006C191.667 125.006 325 108.339 409.507 91.6727M276.02 25.006C241.667 158.339 208.333 275.006 276.02 558.339" stroke="white" stroke-width="50" stroke-linecap="round" stroke-linejoin="round"/>
</svg>
